<?xml version="1.0" encoding="UTF-8"?>
<svg id="Layer_1" data-name="Layer 1" xmlns="http://www.w3.org/2000/svg" xmlns:xlink="http://www.w3.org/1999/xlink" viewBox="0 0 450 450">
  <defs>
    <style>
      .cls-1 {
        fill: #3e3544;
      }

      .cls-2 {
        fill: #f22b38;
      }

      .cls-3 {
        fill: #fff;
      }

      .cls-4 {
        fill: #ffde38;
      }

      .cls-5 {
        clip-path: url(#clippath-2);
      }

      .cls-6 {
        fill: #3a2c99;
      }

      .cls-7 {
        isolation: isolate;
      }

      .cls-8 {
        opacity: .2;
      }

      .cls-9 {
        clip-path: url(#clippath-6);
      }

      .cls-10 {
        fill: #262028;
      }

      .cls-11 {
        fill: #ffb700;
      }

      .cls-12 {
        fill: #fe8786;
      }

      .cls-13 {
        fill: #302534;
      }

      .cls-14 {
        clip-path: url(#clippath-7);
      }

      .cls-15 {
        fill: #d3d3f5;
      }

      .cls-16 {
        clip-path: url(#clippath-1);
      }

      .cls-17 {
        clip-path: url(#clippath-4);
      }

      .cls-18 {
        fill: #ffbfa2;
      }

      .cls-19 {
        fill: #fe4340;
      }

      .cls-20 {
        fill: #f4f4fa;
      }

      .cls-21 {
        fill: #f3f2fc;
      }

      .cls-22 {
        clip-path: url(#clippath);
      }

      .cls-23 {
        fill: #ff6661;
      }

      .cls-24 {
        fill: #19121b;
      }

      .cls-25 {
        fill: #e3e2f2;
      }

      .cls-26 {
        clip-path: url(#clippath-3);
      }

      .cls-27 {
        clip-path: url(#clippath-8);
      }

      .cls-28 {
        fill: #ffc400;
      }

      .cls-29 {
        fill: #bfbeed;
      }

      .cls-30 {
        fill: #6e4cb3;
      }

      .cls-31 {
        clip-path: url(#clippath-5);
      }

      .cls-32 {
        fill: #dadaf9;
      }

      .cls-33 {
        fill: #7f89a6;
      }

      .cls-34 {
        fill: #f9d5c3;
      }

      .cls-35 {
        fill: #231869;
      }
    </style>
    <clipPath id="clippath">
      <path class="cls-29" d="m121.81,336.37l7.29,4.24c-1.54-.89-2.49-2.79-2.5-5.49l-7.29-4.24c0,2.7.96,4.6,2.5,5.49Z"/>
    </clipPath>
    <clipPath id="clippath-1">
      <path class="cls-20" d="m223.45,66.87l-7.29-4.24c-1.56-.9-3.71-.78-6.1.6l7.29,4.24c2.38-1.37,4.54-1.5,6.1-.6Z"/>
    </clipPath>
    <clipPath id="clippath-2">
      <path class="cls-6" d="m275.45,256.35l3.54,2.06c-.25-.15-.6-.13-.98.09l-3.54-2.06c.38-.22.73-.24.98-.09Z"/>
    </clipPath>
    <clipPath id="clippath-3">
      <path class="cls-20" d="m293.33,79.05l2.13,1.24c-1.52-.88-3.62-.76-5.93.58l-2.13-1.24c2.32-1.34,4.42-1.46,5.93-.58Z"/>
    </clipPath>
    <clipPath id="clippath-4">
      <path class="cls-29" d="m163.91,267.35l-2.13-1.24c-1.5-.87-2.42-2.72-2.43-5.35l2.13,1.24c0,2.63.93,4.48,2.43,5.35Z"/>
    </clipPath>
    <clipPath id="clippath-5">
      <path class="cls-20" d="m161.2,164.55l-2.13-1.24c-.02-5.29,3.71-11.74,8.31-14.4l2.13,1.24c-4.61,2.66-8.33,9.11-8.31,14.4Z"/>
    </clipPath>
    <clipPath id="clippath-6">
      <path class="cls-11" d="m123.77,374.67l21.23,12.3c-2.56-1.49-4.15-4.64-4.17-9.11l-21.23-12.3c.01,4.47,1.61,7.63,4.17,9.11Z"/>
    </clipPath>
    <clipPath id="clippath-7">
      <path class="cls-4" d="m213.44,268.66l-21.23-12.3c-2.59-1.51-6.18-1.31-10.12.97l21.23,12.3c3.94-2.28,7.53-2.48,10.12-.97Z"/>
    </clipPath>
    <clipPath id="clippath-8">
      <path class="cls-4" d="m154.88,297.6l-21.23-12.3c-7.84,4.52-14.23,15.6-14.21,24.61l21.23,12.3c-.03-9.01,6.37-20.08,14.21-24.61Z"/>
    </clipPath>
  </defs>
  <g>
    <g>
      <path class="cls-20" d="m125.15,112.56l3.2,1.86-3.2-1.86c.68-.59,1.39-1.1,2.12-1.53l82.8-47.8,7.29,4.24-82.8,47.8c-.73.42-1.44.94-2.12,1.53-1.4,1.22-2.65,2.75-3.68,4.43l-7.29-4.24c1.02-1.68,2.28-3.21,3.68-4.43Z"/>
      <path class="cls-20" d="m134.56,115.27l-7.29-4.24c-4.73,2.73-8.55,9.35-8.54,14.79l7.29,4.24c-.02-5.44,3.81-12.06,8.54-14.79Z"/>
      <g class="cls-7">
        <g class="cls-7">
          <g class="cls-7">
            <path class="cls-29" d="m219.66,289.9l-1.66,2.31c4.73-2.73,8.55-9.35,8.54-14.79l-1.18,2.62c.01,3.62-2.54,8.04-5.69,9.86Z"/>
          </g>
        </g>
        <polygon class="cls-29" points="136.86 337.7 135.19 340.01 217.99 292.21 219.66 289.9 136.86 337.7"/>
        <g class="cls-7">
          <g class="cls-7">
            <path class="cls-20" d="m131.22,335.53l-4.48,1.22c.29,1.72,1.05,2.98,2.13,3.71l3.77-2.46c-.72-.49-1.22-1.33-1.42-2.47Z"/>
            <path class="cls-29" d="m132.64,338l-3.77,2.46c1.57,1.06,3.83,1,6.33-.45l1.66-2.31c-1.67.96-3.17,1.01-4.22.3Z"/>
          </g>
        </g>
        <g class="cls-7">
          <path class="cls-29" d="m121.81,336.37l7.29,4.24c-1.54-.89-2.49-2.79-2.5-5.49l-7.29-4.24c0,2.7.96,4.6,2.5,5.49Z"/>
          <g class="cls-22">
            <g class="cls-7">
              <path class="cls-29" d="m126.6,335.11l-7.29-4.24c0,2.7.96,4.6,2.5,5.49l7.29,4.24c-1.54-.89-2.49-2.79-2.5-5.49Z"/>
            </g>
          </g>
        </g>
        <polygon class="cls-29" points="225.35 280.04 226.53 277.42 225.95 72.37 224.77 74.99 225.35 280.04"/>
        <g class="cls-7">
          <g class="cls-7">
            <path class="cls-29" d="m224.77,74.99l1.18-2.62c0-.86-.1-1.64-.28-2.33l-1.09,3.4c.12.46.19.98.19,1.55Z"/>
            <path class="cls-20" d="m224.58,73.44l1.09-3.4c-.42-1.6-1.29-2.73-2.47-3.3l-.26,4.5c.79.39,1.37,1.14,1.65,2.2Z"/>
            <path class="cls-20" d="m222.93,71.23l.26-4.5c-1.08-.53-2.41-.59-3.89-.14l1.03,4.54c.99-.31,1.88-.26,2.59.09Z"/>
            <path class="cls-20" d="m220.34,71.14l-1.03-4.54c-.63.19-1.28.48-1.95.87l1.68,4.25c.45-.26.88-.45,1.3-.58Z"/>
          </g>
        </g>
        <g class="cls-7">
          <path class="cls-20" d="m223.45,66.87l-7.29-4.24c-1.56-.9-3.71-.78-6.1.6l7.29,4.24c2.38-1.37,4.54-1.5,6.1-.6Z"/>
          <g class="cls-16">
            <g class="cls-7">
              <path class="cls-20" d="m223.45,66.87l-7.29-4.24c-.94-.55-2.11-.72-3.41-.46l7.29,4.24c1.3-.26,2.47-.09,3.41.46Z"/>
              <path class="cls-20" d="m220.04,66.41l-7.29-4.24c-.84.17-1.75.52-2.69,1.06l7.29,4.24c.94-.54,1.84-.89,2.68-1.06Z"/>
            </g>
          </g>
        </g>
        <path class="cls-20" d="m130.55,129.39l.58,205.05c0,.39.03.75.09,1.09l-4.48,1.22c-.09-.51-.13-1.05-.13-1.64l-.58-205.05,4.53-.68Z"/>
        <polygon class="cls-29" points="126.02 130.06 118.73 125.83 119.31 330.87 126.6 335.11 126.02 130.06"/>
        <polygon class="cls-20" points="219.04 71.72 217.36 67.47 134.56 115.27 136.24 119.53 219.04 71.72"/>
        <path class="cls-20" d="m136.24,119.53c-3.15,1.82-5.7,6.24-5.69,9.86l.58,205.05c0,3.62,2.58,5.09,5.73,3.26l82.8-47.8c3.15-1.82,5.71-6.24,5.69-9.86l-.58-205.05c0-3.62-2.58-5.09-5.73-3.27l-82.8,47.8Z"/>
        <g class="cls-7">
          <g class="cls-7">
            <path class="cls-20" d="m136.24,119.53l-1.68-4.25c-3.71,2.14-6.86,6.67-8.04,11.14l4.36.54c.79-2.98,2.89-6.01,5.36-7.43Z"/>
            <path class="cls-20" d="m130.88,126.96l-4.36-.54c-.33,1.24-.5,2.47-.5,3.65l4.53-.68c0-.78.11-1.6.33-2.43Z"/>
          </g>
        </g>
        <g class="cls-7">
          <g class="cls-7">
            <path class="cls-20" d="m128.76,121.23l-7.29-4.24c-1.18,1.94-2.05,4.07-2.47,6.16l7.29,4.24c.42-2.09,1.29-4.23,2.47-6.16Z"/>
            <path class="cls-29" d="m126.29,127.39l-7.29-4.24c-.18.91-.28,1.81-.27,2.67l7.29,4.24c0-.87.09-1.77.27-2.67Z"/>
          </g>
        </g>
      </g>
      <path class="cls-6" d="m130.94,328.08c0,1.09.23,1.98.65,2.65.96,1.56,2.87,1.89,5.08.61,0,0,83.64-48.34,84.05-48.68,2.55-2.12,4.46-5.85,4.45-8.98l-.59-198.71c0-3.62-2.57-5.09-5.73-3.27l-82.8,47.81c-2.42,1.4-4.5,4.34-5.31,7.28-.15.52-.26,1.04-.32,1.55-.04.35.52,199.75.52,199.75Z"/>
    </g>
    <g>
      <path class="cls-20" d="m160.35,117.31l35.2-20.32c1.98-1.14,3.78-3.48,4.64-6.03l3.79-11.19-52.08,30.07,3.79,6.81c.86,1.55,2.67,1.81,4.64.67Z"/>
      <g class="cls-7">
        <g>
          <path class="cls-20" d="m164.23,108.8c-.05,2.44-1.85,5.38-4.01,6.55-.56.31-1.11.46-1.58.45-.42-.01-.77-.15-1.04-.42-.42-.41-.64-1.09-.62-1.99.05-2.44,1.85-5.38,4.01-6.55.56-.31,1.11-.46,1.58-.45.23,0,.44.05.63.14.68.3,1.06,1.11,1.04,2.27Z"/>
          <path class="cls-29" d="m163.82,108.53c-.05,2.44-1.85,5.38-4.01,6.55-.56.31-1.11.46-1.58.45-.23,0-.44-.05-.63-.14-.42-.41-.64-1.09-.62-1.99.05-2.44,1.85-5.38,4.01-6.55.56-.31,1.11-.46,1.58-.45.23,0,.44.05.63.14.42.4.64,1.09.62,1.99Z"/>
          <path class="cls-6" d="m158.24,115.19c-.16,0-.31-.03-.44-.08-.32-.35-.49-.94-.47-1.69.05-2.33,1.77-5.14,3.83-6.26.51-.28,1-.42,1.41-.41.16,0,.31.03.44.08.32.35.49.94.47,1.69-.05,2.33-1.77,5.14-3.83,6.26-.51.28-1,.42-1.41.41Z"/>
          <g>
            <path class="cls-6" d="m160.92,108.29c0,.29-.22.64-.48.78-.26.14-.46.02-.45-.28,0-.29.22-.64.48-.78.26-.14.46-.02.45.28Z"/>
            <path class="cls-6" d="m159.8,108.97c.12.18.04.55-.19.81-.23.27-.51.33-.63.15-.12-.18-.04-.55.19-.81.23-.27.51-.33.63-.15Z"/>
            <path class="cls-6" d="m158.83,110.17c.22.02.29.31.15.63-.13.32-.42.56-.64.54-.22-.03-.29-.31-.15-.63.13-.32.42-.56.64-.54Z"/>
            <path class="cls-6" d="m158.29,111.59c.26-.14.46-.02.45.27,0,.29-.22.64-.48.78-.26.14-.46.02-.45-.28,0-.29.22-.64.48-.78Z"/>
            <path class="cls-6" d="m158.31,112.85c.23-.27.51-.33.63-.15.12.18.04.55-.19.81-.23.27-.51.33-.63.15-.12-.18-.04-.55.19-.81Z"/>
            <path class="cls-6" d="m158.89,113.59c.13-.32.42-.56.64-.54.22.02.29.31.15.63-.13.32-.42.56-.64.54-.22-.02-.29-.31-.15-.63Z"/>
            <path class="cls-6" d="m159.88,113.64c0-.29.22-.64.48-.78.26-.14.46-.02.45.28,0,.29-.22.64-.48.78-.26.14-.46.02-.45-.28Z"/>
            <path class="cls-6" d="m161,112.96c-.12-.18-.04-.55.19-.81.23-.27.51-.33.63-.15.12.18.04.55-.19.81-.23.27-.51.33-.63.15Z"/>
            <path class="cls-6" d="m161.97,111.75c-.22-.03-.29-.31-.15-.63.13-.32.42-.56.64-.54.22.03.29.31.15.63-.13.32-.42.56-.64.54Z"/>
            <path class="cls-6" d="m162.51,110.33c-.26.14-.46.02-.45-.28,0-.29.22-.64.48-.78.26-.14.46-.02.45.28,0,.29-.22.64-.48.78Z"/>
            <path class="cls-6" d="m162.49,109.08c-.23.27-.51.33-.63.15-.12-.18-.04-.55.19-.81.22-.27.51-.33.63-.15.12.18.04.55-.19.81Z"/>
            <path class="cls-6" d="m161.91,108.34c-.13.32-.42.56-.64.54-.22-.02-.29-.31-.15-.63.13-.32.42-.56.64-.54.22.02.29.31.15.63Z"/>
            <path class="cls-6" d="m161.48,110.37c-.02.68-.52,1.5-1.12,1.82-.6.33-1.07.04-1.05-.64.02-.68.52-1.5,1.12-1.82.6-.33,1.07-.04,1.05.64Z"/>
          </g>
        </g>
      </g>
      <g class="cls-7">
        <g>
          <path class="cls-20" d="m175.72,102.12c-.05,2.44-1.85,5.38-4.01,6.55-.56.31-1.11.46-1.58.45-.42-.01-.77-.15-1.04-.42-.42-.41-.64-1.09-.62-1.99.05-2.44,1.85-5.38,4.01-6.55.56-.31,1.11-.46,1.58-.45.23,0,.44.05.63.14.68.31,1.06,1.11,1.04,2.27Z"/>
          <path class="cls-29" d="m175.31,101.84c-.05,2.44-1.85,5.38-4.01,6.55-.56.31-1.11.46-1.58.45-.23,0-.44-.05-.63-.14-.42-.41-.64-1.09-.62-1.99.05-2.44,1.85-5.38,4.01-6.55.56-.31,1.11-.46,1.58-.45.23,0,.44.05.63.14.42.4.64,1.09.62,1.99Z"/>
          <path class="cls-6" d="m169.73,108.5c-.16,0-.31-.03-.44-.08-.32-.35-.49-.94-.47-1.69.05-2.33,1.77-5.14,3.83-6.26.51-.28,1-.42,1.41-.41.16,0,.31.03.44.08.32.34.49.94.47,1.69-.05,2.33-1.77,5.14-3.83,6.26-.51.28-1,.42-1.41.41Z"/>
          <g>
            <path class="cls-6" d="m172.41,101.61c0,.29-.22.64-.48.78-.26.14-.46.02-.45-.28,0-.29.22-.64.48-.78.26-.14.46-.02.45.27Z"/>
            <path class="cls-6" d="m171.29,102.28c.12.18.04.55-.19.81-.23.27-.51.33-.63.15-.12-.18-.04-.55.19-.81s.51-.33.63-.15Z"/>
            <path class="cls-6" d="m170.32,103.49c.22.03.29.31.15.63-.13.32-.42.56-.64.54-.22-.03-.29-.31-.15-.63.13-.32.42-.56.64-.54Z"/>
            <path class="cls-6" d="m169.78,104.91c.26-.14.46-.02.45.27,0,.29-.22.64-.48.78-.26.14-.46.02-.45-.28,0-.29.22-.64.48-.78Z"/>
            <path class="cls-6" d="m169.8,106.16c.23-.27.51-.33.63-.15.12.18.04.55-.19.81-.23.27-.51.33-.63.15-.12-.18-.04-.55.19-.81Z"/>
            <path class="cls-6" d="m170.38,106.91c.13-.32.42-.56.64-.54.22.02.29.31.15.63-.13.32-.42.56-.64.54-.22-.02-.29-.31-.15-.63Z"/>
            <path class="cls-6" d="m171.36,106.95c0-.29.22-.64.48-.78.26-.14.46-.02.45.28,0,.29-.22.64-.48.78-.26.14-.46.02-.45-.28Z"/>
            <path class="cls-6" d="m172.49,106.28c-.12-.18-.04-.55.19-.81.23-.27.51-.33.63-.15.12.18.04.55-.19.81-.22.27-.51.33-.63.15Z"/>
            <path class="cls-6" d="m173.46,105.07c-.22-.03-.29-.31-.15-.63.13-.32.42-.56.64-.54.22.03.29.31.15.63-.13.32-.42.56-.64.54Z"/>
            <path class="cls-6" d="m174,103.65c-.26.14-.46.02-.45-.27,0-.29.22-.64.48-.78.26-.14.46-.02.45.28,0,.29-.22.64-.48.78Z"/>
            <path class="cls-6" d="m173.98,102.4c-.23.27-.51.33-.63.15-.12-.18-.04-.55.19-.81.22-.27.51-.33.63-.15.12.18.04.55-.19.81Z"/>
            <path class="cls-6" d="m173.4,101.65c-.13.32-.42.56-.64.54-.22-.02-.29-.31-.15-.63.13-.32.42-.56.64-.54.22.02.29.31.15.63Z"/>
            <path class="cls-6" d="m172.97,103.69c-.02.68-.52,1.5-1.11,1.82-.6.33-1.07.04-1.05-.64.02-.68.52-1.5,1.11-1.82.6-.33,1.07-.04,1.05.64Z"/>
          </g>
        </g>
      </g>
      <path class="cls-35" d="m181.41,100.21l4.37-2.52c.82-.47,1.48-1.63,1.48-2.57s-.67-1.33-1.48-.86l-4.37,2.52c-.82.47-1.48,1.63-1.48,2.57s.67,1.33,1.48.86Z"/>
    </g>
  </g>
  <g>
    <g id="man">
      <path class="cls-34" d="m237.93,258.22c.15-.1.36-.1.54-.03.17.07.32.19.45.31,1.31,1.15,2.72,2.65,3.85,3.95l-.09-.06c.16.18.32.37.46.56.03.04.05.08.08.11.52.14,1.04.32,1.39.7.24.26.37.6.46.93.15.56.31,2.23.29,2.8,0,.15-.36.59-.59.63-.02,0-.05-.01-.07-.05l-.02.05c-.4.31-.73.68-.98,1.1-.21.35-.6.27-1.01.39-1.52-1.86-3.44-2.85-4.57-4.93-.14-.26-.27-.55-.21-.83.06-.28.38-.53.67-.43-.13-.27-.07-.6.15-.81.22-.2.59-.26.88-.13-.07-.26.08-.54.33-.67.12-.06.25-.09.38-.09-.71-.69-1.36-1.37-2.06-2.25-.23-.29-.61-.65-.52-1,.02-.11.08-.21.18-.28Z"/>
      <g id="man-2" data-name="man">
        <g>
          <path class="cls-29" d="m282.71,363.47c-.1-.33-.31-.51-.91-.55-.71-.06-1.42-.09-2.12-.13-.96-.06-1.91-.12-2.87-.18.05-.78.07-1.56.16-2.33-1.02.22-1.58-.08-2.56-.44-1.15-.42-2.31-.81-3.49-1.15-.5-.15-1.03-.28-1.54-.18-1.29.26-2,2.39-1.82,3.51.12.79.66,1.46,1.29,1.96.94.74,2.27,1.35,3.46,1.53,1.27.19,2.44.59,3.47,1.39,1.33,1.04,2.27,2.13,4.03,2.26,1.76.13,3.23-.94,3.3-2.77.02-.65-.09-1.3-.21-1.95-.07-.4-.09-.72-.17-.96Z"/>
          <path class="cls-29" d="m273.75,366.66c0-.14,0-.28.01-.42.09-1.43-.46-2.65-.98-3.97-.19-.49-.41-1.01-.82-1.34-.95-.75-2.45-.09-3.05.96-.28.49-.43,1.04-.68,1.54-.48.95-1.43,2.09-2.58,2.14-1.55.07-3.29-.46-4.86-.56-.61-.04-1.24-.06-1.81.17-1.34.54-1.72,2.7-1.25,3.9.29.74.96,1.28,1.69,1.63,1.08.52,2.51.81,3.71.72,1.28-.1,2.51.03,3.69.59,2.02.95,4.37,2.32,6.41.47.55-.5.81-1.24.88-1.98.11-1.3-.33-2.56-.35-3.85Z"/>
        </g>
      </g>
      <path class="cls-35" d="m279.62,307.09c-.95,1.01-4.66-.71-4.73-1.19-4.45-3.28-3.6,10.23-2.22,15.57.74,2.88.64,5.9,1.11,8.83.53,3.27,1.3,6.49,2.3,9.65.22.68.46,1.38.96,1.89,1.04,1.05,2.75.9,4.2.63,1.26-.24,2.66-.63,3.25-1.76.37-.7.33-1.53.31-2.31-.06-2.07-.13-4.22.23-6.26.39-2.18.78-4.37,1.16-6.55.34-1.91.68-3.83.82-5.76.26-3.5-.12-7.01-.74-10.46-.33-1.81.19-5.22-2.39-5.53-2.34-.27-3.65,2.59-4.28,3.26Z"/>
      <path class="cls-30" d="m274.82,337.25l-.72-3.04c.29,1,.53,2.01.72,3.04Z"/>
      <path class="cls-35" d="m276.59,338.78c.72-1.05,2.58-1.04,3.2-.78.49.2,3.99-1.92,5.01-2.73-.08.06.08.92.1,1.05.03.36.06.72.09,1.08.06.71.11,1.42.15,2.13.08,1.39.17,2.78.17,4.18,0,10.08-1.84,18.86-2.02,19.88-.09.51-.2,1.04-.53,1.44-.47.57-1.8,1.14-3.74.84-1.23-.19-2.27-1.01-2.68-2.2-.36-1.05-.29-2.18-.23-3.29.27-4.35.56-8.68.46-13.04-.08-3.51-.35-7.04-1.1-10.46l1.12,1.91Z"/>
      <path class="cls-6" d="m264.51,316.87c-.23,4.26-.19,8.53.15,12.78.21,2.56.52,5.12.93,7.65.21,1.27.44,2.53.7,3.79.25,1.21.49,1.59,1.48,2.25,2.13,1.42,6.03,1.34,7.64-1.07,1.73-2.59,1.15-6.71,1.75-9.66.88-4.29,3.83-7.37,5.25-11.43.51-1.46.76-2.88.82-4.31h-18.73Z"/>
      <path class="cls-32" d="m287.69,296.64c.09-.76.21-1.51.34-2.27.63-3.61,1.72-7.14,2.17-10.78.35-2.83.61-6.36-1.64-8.55-.37-.36-.79-.65-1.23-.9-4.36-2.46-8.53.54-12.62,2.01-2.69.97-5.26,2.24-7.67,3.77-.84.54-1.7.9-2.26,1.74-.6.88-.92,1.84-.98,2.91-.07,1.21.15,2.42.36,3.62,1.18,6.97,1.69,14.1.85,21.11-.36,3.02-.72,11.28-.72,11.28,1,.44,1.65.85,6.52.94,10.07.18,15.63-2.36,16.21-2.89.58-.53.38-1.75.4-2.48.06-2.19.02-4.38-.03-6.57-.1-4.31-.24-8.63.3-12.92Z"/>
      <path class="cls-6" d="m266.38,343.1c.13,2.21.25,4.42.35,6.63.08,1.75.14,3.5.19,5.25.04,1.35.06,2.7.07,4.05.07,7.38-.76,9.02,2.7,10.07.77.23,1.6.32,2.39.15,2.28-.5,2.72-2.48,3.06-4.94.19-1.38.31-3.05.39-4.45.07-1.18.12-2.37.17-3.55.07-1.6.13-3.21.19-4.81.07-2.12.15-4.23.21-6.35.09-2.7.39-5.46.48-8.17.01-.39-.23-.81-.53-1.02-.4-.28-8.63,2.49-9.48,3.39,0,0-.36,1.03-.19,3.76Z"/>
      <path class="cls-20" d="m265.86,278.18c-2.68-.4-9.07-1.61-10.48-2.47-3.67-2.23-7.55-6.72-9.18-8.91-.55-.74-5.08,2.18-5.1,2.83-.01.54,3.52,6.04,4.08,6.85,2.82,4.13,5.54,6.38,6.48,6.9,2.49,1.37,12.38,5.45,12.99,5.59,1.78.4,4.91-1.34,5.63-2.6,4.56-8.02-3.33-8.03-4.42-8.19Z"/>
      <path class="cls-34" d="m273.61,272.59c-.16-1.08-.97-.83-.56-1.81.35-.83.88-1.6,1.6-2.15.71-.55,1.62-.88,2.52-.83.31.02.52.2.83.2.85,0,1.71-.16,2.55-.04.85.12,1.63.18,1.63,1.14,0,1.27-.06,2.49.35,3.74.22.67.55,1.31.6,2.01.11,1.38-.89,2.66-2.13,3.26-1.53.74-3.26.67-4.88.44-.82-.12-1.96-.28-2.44-1.06-.36-.59-.21-1.35-.13-1.99.12-.97.22-1.93.07-2.91Z"/>
      <g>
        <g class="cls-7">
          <g class="cls-7">
            <path class="cls-6" d="m275.45,256.35l3.54,2.06c-.25-.15-.6-.13-.98.09l-3.54-2.06c.38-.22.73-.24.98-.09Z"/>
            <g class="cls-5">
              <g class="cls-7">
                <path class="cls-33" d="m278.01,258.5l-3.54-2.06c.38-.22.73-.24.98-.09l3.54,2.06c-.25-.15-.6-.13-.98.09Z"/>
              </g>
            </g>
          </g>
        </g>
        <path class="cls-34" d="m269.97,258.78c-.51.63-.92,1.33-1.04,2.15-.27,1.84.47,3.73.07,5.55-.39,1.77.37,5.78,3.85,6.81,1.76.52,5.24-.09,6.36-.62,1.5-.72,2.49-2.17,3.38-3.58,7.28-11.55-7.69-16.31-12.62-10.3Z"/>
        <path class="cls-6" d="m285.9,263.9c-.05.34-.1.68-.16,1.02-.05.26-.11.51-.19.76-.07.22-.15.43-.24.63-.35.77-.84,1.48-1.33,2.18-.68.96-1.4,1.96-2.46,2.47-.46.22-.96.34-1.46.45-1.37.3-3.41.37-4.46-.77-.47-.51-.66-1.22-.75-1.9-.08-.66-.11-1.23-.29-1.89-.04-.16-.09-.33-.14-.49-.08-.26-.17-.51-.31-.75-.22-.38-.55-.72-.97-.85-.72-.22-1.58.19-2.21-.23-.32-.22-.49-.59-.63-.95-.15-.36-.28-.75-.42-1.14-.19-.51-.41-1.02-.73-1.42-.17-.21-.37-.41-.5-.65-.19-.33-.4-.63-.41-1-.07-1.69,1.32-3.36,2.49-4.44.63-.58,1.33-1.1,2.11-1.44.69-.3,1.43-.44,2.18-.55,2.2-.32,4.55-.26,6.5.82.51.29,1.01.66,1.26,1.19.05.12.1.25.18.35.11.13.28.2.44.28.53.25.96.56,1.31.92,1.78,1.83,1.52,4.96,1.19,7.39Z"/>
        <path class="cls-34" d="m273.95,263.98c1.39-.12,1.78,1.61.84,2.96-.27.4-.76.75-1.12,1.07-2.47,2.17-3.13-.12-2.35-.86,1.82-1.72.88-3.03,2.63-3.17Z"/>
        <path class="cls-18" d="m273.57,266.62c.16-.15,1.73-1.12.64-1.74-.3-.17-.63.1-.67.42-.02.16.03.33.01.5-.01.1-.05.19-.1.28-.14.23-.62.46-.52.8.09.3.55-.16.64-.25Z"/>
      </g>
    </g>
    <g>
      <path class="cls-34" d="m266.13,236.75c-.15-.13-.27-.28-.26-.46.03-.26.38-.38.6-.41.36-.05.73.04,1.07.18.44.18.85.44,1.3.59.13.04.26.07.39.04.13-.03.24-.14.24-.28,0-.24-.4-.44-.57-.57-.27-.2-.56-.38-.86-.54-.45-.24-1.03-.54-1.54-.6-.57-.07-1.19.04-1.77-.02-.12-.01-.24-.02-.34-.07-.17-.08-.28-.25-.37-.41-.1-.17-.19-.36-.27-.54-.01-.03-.03-.07-.02-.11,0-.04.05-.07.08-.1.65-.44,1.48-.67,2.21-.94.53-.19,1.05-.38,1.59-.55.13-.04.26-.08.39-.07.14.02.26.09.38.16.37.2.78.33,1.17.48,1.36.55,2.51,1.52,3.6,2.5.73.66,1.48,1.31,2.18,1.99.57.55.22,1.62-.29,2.08-.11.1-.24.19-.37.27-.51.29-1.1.27-1.66.12-.28-.07-1.55-.55-1.95-.66-1.62-.46-3.23-1.02-4.66-1.91-.08-.05-.17-.11-.26-.18Z"/>
      <path class="cls-15" d="m296.91,240.16c4.19-2.73,5.81-7.12,4.28-8.58-2.61-2.49-4.88-.83-10.84,4.37-.13.11-.26.23-.39.34-1.46,1.25-2.91,2.51-4.26,3.89-.75.77-1.48,1.58-2.12,2.45-.14.2-.29.41-.42.62-.14.22-.17.47-.25.72-.2.62-.37,1.26-.38,1.92-.02.81.24,1.67.86,2.2.71.61,1.76.66,2.65.37.99-.33,4.56-1.02,7.18-3.57,1.71-1.66-1.72-1.21,3.69-4.73Z"/>
      <path class="cls-15" d="m273.87,237.07c.25-.37.49-.62.93-.52.44.1.87.29,1.27.5.84.44,1.59,1.03,2.36,1.57,1.02.72,2.06,1.3,3.13,1.93.77.46,1.52.94,2.24,1.47,1.35.98,4.32,3.22,2.91,5.19-.51.71-1.7,1.4-2.63,1.27-.71-.09-1.55-.93-2.1-1.33-1.27-.92-2.52-1.89-3.76-2.85-1.52-1.17-2.96-2.52-4.5-3.7-.62-.48-1.05-.53-.84-1.43.17-.71.53-1.39.92-2,.02-.03.04-.07.07-.1Z"/>
      <path class="cls-13" d="m315.51,234.18c0-.84.06-1.68.09-2.52.05-1.74.04-3.5-.26-5.22-.36-2.05-1.14-4.04-2.27-5.79-.17-.27-.35-.53-.58-.74-.58.08-1.32-.11-1.85.17-.78.41-1.33,1.77-1.67,2.53-.91,2.06-1.19,4.4-.73,6.61.18.85.56,1.5.85,2.29.35.96.68,1.91,1.24,2.78.69,1.07,1.73,1.97,2.98,2.21.63.12,1.35.04,1.78-.43.47-.51.43-1.22.43-1.86v-.04Z"/>
      <g>
        <path class="cls-18" d="m315.1,233.77c-1.9-.86-5.38-2.57-7.25-3.85-.27-.19-1.53.64-1.86.57-2.43-.51-5.01-.4-7.26.59-.03.01-.05.02-.08.04v14.9h14.28l2.17-12.25Z"/>
        <path class="cls-18" d="m309.72,232.63s-8.89,4.47-8.46-.47c.6-6.88,1.03-7.64,4.12-8.53.84-.24,1.18-.96,2.05-.92,3.19.13,1.85,1.79,1.66,3-.57,3.58.69,5.02.63,6.92Z"/>
        <g>
          <path class="cls-25" d="m301.69,229.97s-.08,0-.12,0c.35-.11.56-.02.12,0Z"/>
          <path class="cls-20" d="m319.67,238.9c.02.27.02.56,0,.85-.03.83-.25,1.62-.43,2.42-.21.95-.67,1.8-1.18,2.62-.54.86-.98,1.75-1.51,2.62-.54.88-.82,1.77-1.25,2.7-.96,2.09-1.81,4.25-2.19,6.52-.31,1.83-.31,3.68-.2,5.52.06.88.2,1.77.16,2.63-.01.24.05.67,0,.87-.07.32-.23.43-.52.66-1.59,1.24-3.47,1.95-5.43,2.29-2.1.35-4.37.2-6.39-.14-.6-.1-1.17-.22-1.71-.34-2.41-.57-4.21-1.3-4.52-1.52-.44-.34-.25-.24.13-3.45,1.54-13.19-4.28-13.43-2.01-20.33.39-1.18,1.18-2.29,1.67-3.47,1.8-4.33.67-9.14,7.29-9.38-.41.13-4.24,6.58.37,8.47,2.97,1.22,8.86-2.03,10.24-6.08,1.96.92,3.74,1.5,5.37,2.7,1.39,1.03,2.02,2.25,2.12,3.83Z"/>
        </g>
        <g>
          <path class="cls-24" d="m307.49,326.91c-.23.36-.38.77-.52,1.17-.52,1.46-1.03,2.92-1.55,4.38-.46,1.29-.61,2.67-.77,4.04-.13,1.07-.52,2.38.23,3.27.74.88,2.09,1.1,3.18.69,1.08-.4,1.91-1.32,2.44-2.35.64-1.24.78-2.52.98-3.88.22-1.49.45-2.97.67-4.46.09-.61.18-1.23.04-1.82-.39-1.6-3.19-2.68-4.4-1.42-.11.12-.21.24-.29.38Z"/>
          <path class="cls-24" d="m295.49,329.88c-.02-.77.34-1.5.78-2.13.71-1,1.65-1.81,2.43-2.75.38-.46.61-.95.9-1.46.31-.55.89-1.02,1.3-1.5.06-.08.13-.15.2-.22.69-.74,1.6-1.33,2.59-1.57.83-.2,2.15-.26,2.73.45.84,1.03.68,2.15.36,3.32-.33,1.2-1.39,1.57-2.22,2.41-.43.43-.73.91-1.16,1.34-.56.56-1.08,1.16-1.63,1.73-.75.78-1.58,1.51-2.58,1.94-1.43.61-3.6.48-3.69-1.49,0-.02,0-.04,0-.05Z"/>
          <path class="cls-18" d="m292.15,299.09c.77,1.79,6.19,15.15,7.41,19.52.54,1.94,1.1,4.48-.27,6.2-.3.38-.65.75-.83,1.2-.19.45-.18,1.03.17,1.37.32.31.82.34,1.24.19.41-.15.76-.44,1.09-.73,1.03-.9,2.06-1.8,2.93-2.85.5-.59.94-1.23,1.29-1.92.36-.71.68-1.28.32-2-.77-1.54-1.1-3.34-1.23-5.04-.08-1.08-.08-2.16-.05-3.25.03-.99.18-2.01.12-3-.13-2.02-.21-4.07-.75-6.04-.36-1.3-.94-2.55-1.79-3.6-.87-1.08-2.08-1.74-3.04-2.71-.57-.58-1.32-1.17-2.19-1.02l-4.42,3.7Z"/>
          <path class="cls-34" d="m315.85,276.3c-.04-2.54-.11-3.97-.46-6.48-.23-1.62-1.51-6.04-1.51-6.04,0,0-6.6,2.83-8.68,3.04-2.54.25-3.55.32-5.54-.07-.91-.17-.98-.13-.97.77.01,1.26.5,2.68.75,3.92.94,4.8,2.38,9.6,3.13,14.43.61,3.93.44,8.12.98,12.11.23,1.7,1.14,3.4,1.91,4.86.89,1.7,1.79,2.64,3.45,2.46.75-.08,2.04-.93,2.46-1.57.27-.41.32-1.21.48-1.69.44-1.38.81-2.79,1.11-4.21.06-.3.12-.59.18-.88,0-.03.01-.07.02-.1.75-3.78,1.17-7.66,1.74-11.47.44-2.97,1.02-6.03.97-9.09Z"/>
          <path class="cls-34" d="m303.04,295.37c.35,4.69,2.25,8.09,3.04,12.71.87,5.1.97,10.28,1.01,15.44.02,2.2.17,4.55-.2,6.73-.23,1.35-1.43,3.6-.35,4.82.39.43.97.67,1.55.71.5.04,1.03-.05,1.44-.34.72-.5.86-1.79,1.12-2.58.91-2.77,1.41-5.62,2.18-8.42.85-3.09,2.15-6.06,2.62-9.25.27-1.83.24-3.7.21-5.55-.06-3.66-1.3-8.67-2.79-12-.36-.8-.46.15-1.33,0l-8.5-2.27Z"/>
        </g>
        <path class="cls-6" d="m290.65,295.34c-.34,1.68-.47,3.23.79,4.95,1.46,2,3.93,3.05,6.39,3.34s4.93-.11,7.38-.5c2.77-.45,5.54-.89,8.31-1.34.64-.1,1.34-.24,1.75-.73.45-.54.42-1.32.37-2.02-.25-3.36-.49-6.61-.33-9.94.19-3.79.82-7.65.82-11.44.18-3.58,0-7.29-1.29-10.67-.29-.76-.7-3.01-1.49-3.34-1.23-.52-3.6,1.11-4.74,1.5-1.57.54-7.17,1.58-8.44,1.65-2.51.13-2.99-1.97-6.14-1.94-.88,0-1.41,6.23-1.54,7.07-.33,2.14-.6,4.28-.75,6.44-.14,1.99.15,3.84.12,5.8-.05,2.99-.26,6.07-.77,9.01-.13.76-.31,1.47-.45,2.16Z"/>
        <path class="cls-35" d="m294.04,264.85c.33-1.12.64-2.14.64-2.14,0,0,4.04,3.58,9.47,3.18,5.2-.38,8.92-3.38,8.78-3.66.34.5.65,1.02.96,1.54-5.62,4.88-13.91,4.74-19.84,1.07Z"/>
        <g>
          <path class="cls-34" d="m306.42,228.37c.24-.16.48-.33.71-.52.11-.09.21-.18.31-.28.88-.83,1.41-1.96,2.08-2.94.68-1,1.05-2.3,1.22-3.48.35-2.4-.27-4.91-1.97-6.69-1.91-1.99-4.94-2.83-7.6-2.08-.72.2-1.41.51-2.07.85-.57.29-1.15.62-1.58,1.09-.29.31-.51.68-.71,1.05-.36.67-.56,1.33-.77,2.05-.11.4-.07.82-.07,1.24,0,.73.05,1.43.19,2.15.12.59.2,1.19.21,1.78.01.61-.28,1.12-.48,1.69-.12.35-.32.88-.22,1.23.11.38.52.68.71,1.03.2.37.27.65.28,1.08.01.28.11.46.21.7.09.21.04.36.07.56.04.24.23.46.31.68.1.26.18.51.32.75.79,1.43,1.94,1.52,3.37.97,1.12-.43,2.14-.99,3.16-1.61.76-.46,1.56-.83,2.3-1.31Z"/>
          <path class="cls-1" d="m313.33,218.69c-.04-.66-.16-1.32-.36-1.96-.2-.61-.47-1.2-.81-1.74-.17-.28-.36-.57-.58-.82-.2-.22-.62-.46-.73-.73-.01-.03-1.15-2.86-6.41-2.86-1.98,0-3.92.72-5.6,1.76-1.19.74-1.92,1.39-2.49,2.7-.56,1.29-.84,2.7-.8,4.11,0,.21.03.44.17.6.22.23.6.18.91.1,1.16-.3,2.14-.68,3.16-1.27.48-.27,1.74-.86,2.3-.6.46.21.12,1.4.29,1.94.22.67.65,1.28,1.23,1.68.52.36,1.13.56,1.68.86.55.3,1.08.75,1.24,1.36.16.65-.06,1.52.52,1.87.69.41,2.58-1.17,2.48-1-.46.77-.39.64-.56,2,2.18-1.29,3.85-3.63,4.26-6.16.1-.6.13-1.21.09-1.82Z"/>
          <path class="cls-34" d="m308.84,222.08c1.38-.09,1.73,1.63.77,2.95-.28.39-.77.73-1.13,1.03-2.48,2.1-3.1-.19-2.31-.9,1.83-1.66.93-2.97,2.67-3.08Z"/>
          <path class="cls-18" d="m307.94,225.22c.16-.15,1.74-1.07.67-1.7-.3-.18-.63.08-.67.4-.02.16.03.33,0,.49-.02.1-.06.19-.11.27-.14.23-.62.44-.53.78.08.3.55-.15.64-.23Z"/>
        </g>
      </g>
      <path class="cls-34" d="m315.86,258.39c-.14.14-.29.27-.49.36-.29.13-.63.18-.93.08-.39-.13-.67-.47-.93-.78-.43-.51-.88-1-1.36-1.47-.12-.12-.27-.25-.45-.23-.16.01-.28.15-.32.3-.03.1.06.59,0,.61-.13.03-.43-.15-.56-.19-.22-.07-.44-.14-.67-.2-.46-.12-.93-.21-1.41-.26-.94-.11-1.88-.1-2.82.04-.08.01-.17.03-.24.07-.07.04-.13.13-.11.21.01.09.1.15.18.2.62.35,1.34.4,2.02.57.29.07.54.22.83.3.37.11.74.25,1.09.42-1.14-.26-2.32-.4-3.49-.42-.24,0-.81.01-.95.24-.2.31.32.52.53.59.64.23,1.27.46,1.91.69-.7-.25-1.48-.32-2.22-.24-.36.04-.62.05-.53.48.06.29.29.53.58.58.44.08.88.14,1.32.24.61.13,1.22.3,1.8.56-.49.03-1,.07-1.47.23-.39.13-.84.37-1.06.73-.14.24-.18.71.19.74.39.03.78.04,1.17.02.82-.04,1.65-.16,2.48-.04,1.19.18,2.27.86,3.47,1.01,1.08.14,2.16-.16,3.12-.63.9-.44,1.56-1.23,2.4-1.75.51-.32,1.07-.5,1.49-.93.47-.48.92-.98,1.36-1.5.21-.25.42-.52.44-.85.03-.45-.32-.83-.69-1.09-.49-.35-1.05-.59-1.63-.71-.55-.11-1.16-.23-1.68.02-.69.33-1.3,1.02-1.88,1.51-.19.16-.34.34-.5.51Z"/>
      <path class="cls-20" d="m317.84,235.16c-.13-.1-.26-.2-.39-.31-.43-.35-.99-.63-1.51-.44-.4.15-.66.54-.84.92-.47,1.01-.59,2.15-.67,3.26-.08,1.13-.12,2.28.08,3.4.17,1,.57,2.35,1.41,2.99.82.62,1.6,1.29,2.39,1.95,1.6,1.33,3.23,2.63,4.88,3.89.77.58,1.62,1.42,2.52,1.79,2.56,1.04,5.07-.3,5.51-2.21.17-.72-.12-1.52-.43-2.16-.46-.93-1.24-1.64-1.92-2.41-.79-.89-1.59-1.77-2.4-2.64-2.15-2.31-4.32-4.66-6.75-6.68-.61-.5-1.25-.91-1.88-1.37Z"/>
      <path class="cls-20" d="m318.31,261.79c1.15.32,1.95-.55,2.7-1.14,1.77-1.39,8.39-5.92,10.11-9.9.42-.96-1.97-1.86-3.07-2.83-.76-.66-2.06-.31-2.9-.04-1.05.34-9.22,9.81-9.37,10.34-.32,1.13,1.64,3.32,2.53,3.57Z"/>
    </g>
  </g>
  <g>
    <g class="cls-8">
      <path class="cls-29" d="m283.32,172.23c.02,5.37-3.76,11.91-8.43,14.61l-121.77,70.3c-4.67,2.7-8.48.54-8.49-4.83l-.26-90.1-.02-8.78c-.01-5.37,3.76-11.91,8.43-14.61l121.77-70.31c4.67-2.69,8.48-.53,8.49,4.84l.02,8.79.26,90.1Z"/>
    </g>
    <g class="cls-8">
      <path class="cls-29" d="m289.87,178.49c.02,5.37-3.76,11.91-8.43,14.61l-121.77,70.3c-4.67,2.7-8.48.54-8.49-4.83l-.26-90.1-.02-8.78c-.01-5.37,3.76-11.91,8.43-14.61l121.77-70.31c4.67-2.69,8.48-.53,8.49,4.84l.02,8.79.26,90.1Z"/>
    </g>
    <g class="cls-7">
      <g class="cls-7">
        <path class="cls-20" d="m293.33,79.05l2.13,1.24c-1.52-.88-3.62-.76-5.93.58l-2.13-1.24c2.32-1.34,4.42-1.46,5.93-.58Z"/>
        <g class="cls-26">
          <path class="cls-12" d="m289.52,80.86l-2.13-1.24c2.32-1.34,4.42-1.46,5.93-.58l2.13,1.24c-1.52-.88-3.62-.76-5.93.58Z"/>
        </g>
      </g>
      <g>
        <path class="cls-29" d="m163.91,267.35l-2.13-1.24c-1.5-.87-2.42-2.72-2.43-5.35l2.13,1.24c0,2.63.93,4.48,2.43,5.35Z"/>
        <g class="cls-17">
          <g class="cls-7">
            <path class="cls-29" d="m163.91,267.35l-2.13-1.24c-1.5-.87-2.42-2.72-2.43-5.35l2.13,1.24c0,2.63.93,4.48,2.43,5.35Z"/>
          </g>
        </g>
      </g>
      <g>
        <polygon class="cls-23" points="161.2 164.55 159.07 163.31 159.1 171.97 161.23 173.2 161.2 164.55"/>
        <polygon class="cls-29" points="159.1 171.97 159.35 260.76 161.48 262 161.23 173.2 159.1 171.97"/>
      </g>
      <polygon class="cls-12" points="169.51 150.15 167.39 148.91 287.39 79.63 289.52 80.86 169.51 150.15"/>
      <g class="cls-7">
        <path class="cls-20" d="m161.2,164.55l-2.13-1.24c-.02-5.29,3.71-11.74,8.31-14.4l2.13,1.24c-4.61,2.66-8.33,9.11-8.31,14.4Z"/>
        <g class="cls-31">
          <g class="cls-7">
            <path class="cls-23" d="m161.2,164.55l-2.13-1.24c-.02-5.29,3.71-11.74,8.31-14.4l2.13,1.24c-4.61,2.66-8.33,9.11-8.31,14.4Z"/>
          </g>
        </g>
      </g>
      <path class="cls-21" d="m298.16,183.08c.02,5.29-3.71,11.73-8.31,14.4l-120.01,69.28c-4.61,2.66-8.35.53-8.37-4.76l-.25-88.8-.02-8.66c-.01-5.29,3.71-11.74,8.31-14.4l120.01-69.29c4.61-2.66,8.35-.52,8.37,4.77l.02,8.66.25,88.79Z"/>
      <path class="cls-19" d="m297.91,94.29l-136.68,78.91-.02-8.66c-.01-5.29,3.71-11.74,8.31-14.4l120.01-69.29c4.61-2.66,8.35-.52,8.37,4.77l.02,8.66Z"/>
    </g>
    <g>
      <path class="cls-6" d="m250.4,149.12c0-11.77-8.19-16.58-18.28-10.75-10.1,5.83-18.28,20.09-18.28,31.86,0,11.77,8.19,16.58,18.28,10.75,10.1-5.83,18.28-20.09,18.28-31.86Z"/>
      <g>
        <path class="cls-3" d="m237.78,144.63c0,3.65-2.54,8.07-5.67,9.88-3.13,1.81-5.67.32-5.67-3.33s2.54-8.07,5.67-9.88,5.67-.32,5.67,3.33Z"/>
        <g>
          <path class="cls-3" d="m240.98,170v-10.9c0-4.76-3.34-6.73-7.43-4.37l-2.87,1.66c-4.09,2.36-7.43,8.19-7.43,12.95v10.9l17.74-10.24Z"/>
          <path class="cls-29" d="m233.32,154.87l-2.4,1.39,2.4-1.39Z"/>
        </g>
      </g>
    </g>
    <polygon class="cls-3" points="260.63 178.83 203.6 211.75 203.6 202.15 260.63 169.23 260.63 178.83"/>
    <polygon class="cls-6" points="243.02 209.78 221.77 222.05 221.77 228.21 243.02 215.94 243.02 209.78"/>
    <polygon class="cls-3" points="260.63 193.7 203.6 226.62 203.6 217.03 260.63 184.1 260.63 193.7"/>
    <g>
      <path class="cls-2" d="m207.89,219.55l-1.04.24.16-.69,1.04-.16-.03-1.34.53-.3-.03,1.4,1.02-1.02.16.51-1.05.97.68.68-.43.62-.64-.77-.62,1.47-.43-.11.69-1.49Z"/>
      <path class="cls-2" d="m210.91,217.8l-1.04.24.16-.69,1.04-.15-.03-1.34.53-.3-.03,1.4,1.02-1.02.16.51-1.05.97.68.68-.43.62-.64-.77-.62,1.47-.43-.11.69-1.49Z"/>
      <path class="cls-2" d="m213.94,216.05l-1.04.24.16-.69,1.04-.16-.03-1.34.53-.3-.03,1.4,1.02-1.02.16.51-1.05.97.68.68-.43.62-.64-.77-.62,1.47-.43-.11.69-1.49Z"/>
      <path class="cls-2" d="m216.97,214.3l-1.04.24.16-.69,1.04-.15-.03-1.34.53-.3-.03,1.4,1.02-1.02.16.51-1.05.97.68.68-.43.62-.64-.77-.62,1.47-.43-.11.69-1.49Z"/>
      <path class="cls-2" d="m220,212.55l-1.04.24.16-.69,1.04-.15-.03-1.34.53-.3-.03,1.4,1.02-1.02.16.51-1.05.97.68.68-.43.62-.64-.77-.62,1.47-.43-.11.69-1.49Z"/>
    </g>
    <g>
      <path class="cls-20" d="m284.76,93.07c0,1.13.8,1.59,1.78,1.03.98-.57,1.78-1.95,1.78-3.08s-.8-1.59-1.78-1.03c-.98.57-1.78,1.95-1.78,3.08Z"/>
      <path class="cls-20" d="m279.16,96.3c0,1.13.8,1.59,1.78,1.03.98-.57,1.78-1.94,1.78-3.08s-.8-1.59-1.78-1.03c-.98.57-1.78,1.95-1.78,3.08Z"/>
      <path class="cls-20" d="m273.56,99.53c0,1.13.8,1.59,1.78,1.03.98-.57,1.78-1.94,1.78-3.08s-.8-1.59-1.78-1.03c-.98.57-1.78,1.94-1.78,3.08Z"/>
    </g>
  </g>
  <g>
    <g class="cls-7">
      <g class="cls-7">
        <path class="cls-11" d="m123.77,374.67l21.23,12.3c-2.56-1.49-4.15-4.64-4.17-9.11l-21.23-12.3c.01,4.47,1.61,7.63,4.17,9.11Z"/>
        <g class="cls-9">
          <g class="cls-7">
            <path class="cls-11" d="m140.83,377.86l-21.23-12.3c.01,4.47,1.61,7.63,4.17,9.11l21.23,12.3c-2.56-1.49-4.15-4.64-4.17-9.11Z"/>
          </g>
        </g>
      </g>
      <g class="cls-7">
        <path class="cls-4" d="m213.44,268.66l-21.23-12.3c-2.59-1.51-6.18-1.31-10.12.97l21.23,12.3c3.94-2.28,7.53-2.48,10.12-.97Z"/>
        <g class="cls-14">
          <g class="cls-7">
            <path class="cls-4" d="m213.44,268.66l-21.23-12.3c-2.55-1.48-6.07-1.31-9.94.86l21.23,12.3c3.87-2.18,7.38-2.35,9.94-.86Z"/>
            <path class="cls-4" d="m203.5,269.53l-21.23-12.3c-.06.04-.13.07-.19.11l21.23,12.3c.06-.04.12-.07.19-.11Z"/>
          </g>
        </g>
      </g>
      <polygon class="cls-11" points="140.67 322.21 119.45 309.9 119.6 365.56 140.83 377.86 140.67 322.21"/>
      <polygon class="cls-4" points="203.31 269.64 182.09 257.33 133.65 285.29 154.88 297.6 203.31 269.64"/>
      <g class="cls-7">
        <path class="cls-4" d="m154.88,297.6l-21.23-12.3c-7.84,4.52-14.23,15.6-14.21,24.61l21.23,12.3c-.03-9.01,6.37-20.08,14.21-24.61Z"/>
        <g class="cls-27">
          <g class="cls-7">
            <path class="cls-4" d="m154.88,297.6l-21.23-12.3c-1.69.97-3.3,2.25-4.81,3.74l21.23,12.3c1.5-1.49,3.12-2.77,4.81-3.74Z"/>
            <path class="cls-4" d="m150.08,301.34l-21.23-12.3c-5.48,5.45-9.42,13.8-9.4,20.87l21.23,12.3c-.02-7.07,3.92-15.42,9.4-20.87Z"/>
          </g>
        </g>
      </g>
      <path class="cls-28" d="m154.88,297.6c-7.84,4.52-14.23,15.6-14.21,24.61l.16,55.65c.03,9.01,6.46,12.67,14.3,8.14l48.43-27.96c7.84-4.52,14.23-15.59,14.2-24.6l-.16-55.65c-.03-9.01-6.46-12.68-14.29-8.15l-48.43,27.96Z"/>
    </g>
    <path class="cls-10" d="m188.54,344.52c.01-3.73-2.6-5.25-5.84-3.4-3.24,1.85-5.87,6.38-5.89,10.11,0,2.46,1.13,3.95,2.83,4.15l-.04,10.62,6.03-3.45.04-10.62c1.71-2.16,2.86-4.96,2.87-7.41Z"/>
    <g>
      <path class="cls-32" d="m203.31,234.4l-.11,29.58c0,1.03-.68,2.05-2.03,2.83-2.7,1.56-7.06,1.54-9.75-.04-1.35-.79-2.01-1.83-2.01-2.86l.11-29.56c.02-5.16-1.43-8.97-3.97-10.45-2.55-1.48-6.57-.86-11.05,1.7l-7.61,4.35c-11.92,6.82-22.04,24.2-22.09,37.93l-.11,29.58c0,1.03-.68,2.05-2.03,2.83-1.73,1-4.15,1.35-6.36,1.06-1.24-.16-2.42-.53-3.38-1.1-.36-.21-.68-.44-.94-.69-.72-.66-1.07-1.42-1.07-2.17l.11-29.56c.03-8.99,3.05-19.09,8.49-28.43,5.44-9.34,12.73-16.95,20.54-21.41l7.61-4.36c4.3-2.46,8.58-3.88,12.72-4.23,4.39-.36,8.58.53,12.11,2.58,3.53,2.05,6.37,5.25,8.22,9.25,1.75,3.78,2.62,8.2,2.6,13.16Z"/>
      <path class="cls-29" d="m189.36,225.52c-.78-.45-1.69-.71-2.71-.77,1.86,1.84,2.9,5.23,2.88,9.6l-.11,29.56c0,1.03.66,2.07,2.01,2.86.54.32,1.14.57,1.79.76l.12-31.56c.02-5.16-1.43-8.97-3.98-10.45Z"/>
      <path class="cls-20" d="m193.42,213.74c-2.41-.68-4.99-.92-7.64-.7-4.14.34-8.42,1.77-12.73,4.23l-7.61,4.36c-7.8,4.46-15.09,12.07-20.54,21.41-5.44,9.34-8.45,19.44-8.49,28.43l-.11,29.89c-1.24-.16-2.42-.53-3.38-1.1-.36-.21-.68-.44-.94-.69l.11-29.91c.03-8.99,3.05-19.09,8.49-28.43,5.44-9.34,12.74-16.95,20.54-21.41l7.61-4.36c4.3-2.46,8.58-3.88,12.73-4.23,4.34-.36,8.47.51,11.96,2.5Z"/>
    </g>
  </g>
</svg>